<?xml version="1.0" encoding="UTF-8" standalone="no"?>
<!-- Created with Inkscape (http://www.inkscape.org/) -->
<svg
   xmlns:dc="http://purl.org/dc/elements/1.1/"
   xmlns:cc="http://creativecommons.org/ns#"
   xmlns:rdf="http://www.w3.org/1999/02/22-rdf-syntax-ns#"
   xmlns:svg="http://www.w3.org/2000/svg"
   xmlns="http://www.w3.org/2000/svg"
   xmlns:xlink="http://www.w3.org/1999/xlink"
   xmlns:sodipodi="http://sodipodi.sourceforge.net/DTD/sodipodi-0.dtd"
   xmlns:inkscape="http://www.inkscape.org/namespaces/inkscape"
   width="30"
   height="30"
   id="svg2"
   sodipodi:version="0.32"
   inkscape:version="0.46"
   version="1.0"
   sodipodi:docbase="D:\gfx"
   sodipodi:docname="icon_arrow_left_blue.svg"
   inkscape:output_extension="org.inkscape.output.svg.inkscape"
   inkscape:export-filename="D:\proj\icons\released\icon_arrow_left_blue.png"
   inkscape:export-xdpi="48"
   inkscape:export-ydpi="48"
   sodipodi:modified="TRUE">
  <defs
     id="defs4">
    <linearGradient
       id="linearGradient2388">
      <stop
         style="stop-color:#82aad5;stop-opacity:1;"
         offset="0"
         id="stop2390" />
      <stop
         style="stop-color:#366aa2;stop-opacity:1;"
         offset="1"
         id="stop2392" />
    </linearGradient>
    <linearGradient
       inkscape:collect="always"
       xlink:href="#linearGradient2388"
       id="linearGradient2394"
       x1="13"
       y1="11"
       x2="23"
       y2="21"
       gradientUnits="userSpaceOnUse" />
    <linearGradient
       inkscape:collect="always"
       xlink:href="#linearGradient2388"
       id="linearGradient3170"
       gradientUnits="userSpaceOnUse"
       x1="13"
       y1="11"
       x2="23"
       y2="21" />
  </defs>
  <sodipodi:namedview
     id="base"
     pagecolor="#ffffff"
     bordercolor="#666666"
     borderopacity="1.0"
     inkscape:pageopacity="0.0"
     inkscape:pageshadow="2"
     inkscape:zoom="26.9"
     inkscape:cx="6.765799"
     inkscape:cy="15"
     inkscape:document-units="px"
     inkscape:current-layer="layer1"
     width="30px"
     height="30px"
     showgrid="false"
     gridtolerance="10000"
     inkscape:grid-points="true"
     inkscape:window-width="1680"
     inkscape:window-height="1003"
     inkscape:window-x="0"
     inkscape:window-y="20"
     showguides="true"
     inkscape:snap-global="true">
    <inkscape:grid
       type="xygrid"
       id="grid2395" />
  </sodipodi:namedview>
  <metadata
     id="metadata7">
    <rdf:RDF>
      <cc:Work
         rdf:about="">
        <dc:format>image/svg+xml</dc:format>
        <dc:type
           rdf:resource="http://purl.org/dc/dcmitype/StillImage" />
        <dc:title>icon_arrow_left_blue</dc:title>
        <dc:date>2008-05-12</dc:date>
        <dc:creator>
          <cc:Agent>
            <dc:title>Jean-Victor Balin</dc:title>
          </cc:Agent>
        </dc:creator>
        <dc:language>fr-FR</dc:language>
        <dc:subject>
          <rdf:Bag>
            <rdf:li>icon</rdf:li>
            <rdf:li>arrow</rdf:li>
            <rdf:li>blue</rdf:li>
          </rdf:Bag>
        </dc:subject>
        <dc:description>jean.victor.balin@gmail.com</dc:description>
        <cc:license
           rdf:resource="http://creativecommons.org/licenses/publicdomain/" />
      </cc:Work>
      <cc:License
         rdf:about="http://creativecommons.org/licenses/publicdomain/">
        <cc:permits
           rdf:resource="http://creativecommons.org/ns#Reproduction" />
        <cc:permits
           rdf:resource="http://creativecommons.org/ns#Distribution" />
        <cc:permits
           rdf:resource="http://creativecommons.org/ns#DerivativeWorks" />
      </cc:License>
    </rdf:RDF>
  </metadata>
  <g
     inkscape:label="Calque 1"
     inkscape:groupmode="layer"
     id="layer1">
    <rect
       style="fill:#427bc3;fill-opacity:1;stroke:none"
       id="rect3465"
       width="6"
       height="0"
       x="16"
       y="12.5"
       ry="0" />
    <g
       id="g3166"
       transform="matrix(-1,0,0,1,30,0)">
      <path
         id="path3354"
         d="M 12.5,2.5625 C 11.469289,2.6596416 10.683036,3.5272309 10.6875,4.5625 L 10.6875,7.1875 L 3.375,7.1875 C 2.2704762,7.1876104 1.3751104,8.0829762 1.375,9.1875 L 1.375,20.8125 C 1.3751104,21.917024 2.2704762,22.81239 3.375,22.8125 L 10.6875,22.8125 L 10.6875,25.4375 C 10.68761,26.542024 11.582976,27.43739 12.6875,27.4375 L 15,27.4375 C 15.454258,27.437839 15.895101,27.283544 16.25,27 L 27.875,17.71875 C 28.349387,17.338899 28.625351,16.763975 28.625,16.15625 L 28.625,13.84375 C 28.625351,13.236025 28.349387,12.661101 27.875,12.28125 L 16.25,3 C 15.895101,2.7164562 15.454258,2.562161 15,2.5625 L 12.6875,2.5625 C 12.625034,2.559569 12.562466,2.559569 12.5,2.5625 z"
         style="fill:#204a87;fill-opacity:1;stroke:none" />
      <path
         id="path3358"
         d="M 13.3125,5.1875 L 13.3125,9.1875 C 13.312465,9.5326637 13.032664,9.8124655 12.6875,9.8125 L 4,9.8125 L 4,20.1875 L 12.6875,20.1875 C 13.032664,20.187535 13.312465,20.467336 13.3125,20.8125 L 13.3125,24.8125 L 14.78125,24.8125 L 26,15.84375 L 26,14.15625 L 14.78125,5.1875 L 13.3125,5.1875 z"
         style="fill:url(#linearGradient3170);fill-opacity:1;stroke:none" />
    </g>
  </g>
</svg>
